<svg xmlns="http://www.w3.org/2000/svg" width="500" height="500" version="1.1"><defs><linearGradient id="gr0" x1="0%" x2="100%" y1="0%" y2="100%"><stop offset="0%" stop-color="rgb(16,124,163)"></stop><stop offset="100%" stop-color="rgb(5,49,65)"></stop></linearGradient></defs><polygon id="triangle36" points="374,131 422,113 407,138" style="fill: url(#gr0); stroke: rgb(0, 0, 0); stroke-width: 0;"></polygon><defs><linearGradient id="gr1" x1="0%" x2="100%" y1="0%" y2="100%"><stop offset="0%" stop-color="rgb(15,121,159)"></stop><stop offset="100%" stop-color="rgb(11,67,88)"></stop></linearGradient></defs><polygon id="triangle36" points="374,131 407,138 393,151" style="fill: url(#gr1); stroke: rgb(0, 0, 0); stroke-width: 0;"></polygon><defs><linearGradient id="gr2" x1="0%" x2="100%" y1="0%" y2="100%"><stop offset="0%" stop-color="rgb(0,2,2)"></stop><stop offset="100%" stop-color="rgb(0,0,0)"></stop></linearGradient></defs><polygon id="triangle36" points="407,138 422,113 430,143" style="fill: url(#gr2); stroke: rgb(0, 0, 0); stroke-width: 0;"></polygon><defs><linearGradient id="gr3" x1="0%" x2="100%" y1="0%" y2="100%"><stop offset="0%" stop-color="rgb(16,94,124)"></stop><stop offset="100%" stop-color="rgb(8,45,60)"></stop></linearGradient></defs><polygon id="triangle36" points="393,151 412,165 395,179" style="fill: url(#gr3); stroke: rgb(0, 0, 0); stroke-width: 0;"></polygon><defs><linearGradient id="gr4" x1="0%" x2="100%" y1="0%" y2="100%"><stop offset="0%" stop-color="rgb(2,2,3)"></stop><stop offset="100%" stop-color="rgb(2,0,0)"></stop></linearGradient></defs><polygon id="triangle36" points="395,179 412,165 392,223" style="fill: url(#gr4); stroke: rgb(0, 0, 0); stroke-width: 0;"></polygon><defs><linearGradient id="gr5" x1="0%" x2="100%" y1="0%" y2="100%"><stop offset="0%" stop-color="rgb(3,0,0)"></stop><stop offset="100%" stop-color="rgb(0,0,0)"></stop></linearGradient></defs><polygon id="triangle36" points="412,165 430,143 392,223" style="fill: url(#gr5); stroke: rgb(0, 0, 0); stroke-width: 0;"></polygon><defs><linearGradient id="gr6" x1="0%" x2="100%" y1="0%" y2="100%"><stop offset="0%" stop-color="rgb(0,0,0)"></stop><stop offset="100%" stop-color="rgb(2,2,3)"></stop></linearGradient></defs><polygon id="triangle36" points="392,223 430,143 378,266" style="fill: url(#gr6); stroke: rgb(0, 0, 0); stroke-width: 0;"></polygon><defs><linearGradient id="gr7" x1="0%" x2="100%" y1="0%" y2="100%"><stop offset="0%" stop-color="rgb(8,51,68)"></stop><stop offset="100%" stop-color="rgb(2,2,3)"></stop></linearGradient></defs><polygon id="triangle36" points="374,131 422,113 346,110" style="fill: url(#gr7); stroke: rgb(0, 0, 0); stroke-width: 0;"></polygon><defs><linearGradient id="gr8" x1="0%" x2="100%" y1="0%" y2="100%"><stop offset="0%" stop-color="rgb(3,4,5)"></stop><stop offset="100%" stop-color="rgb(6,22,29)"></stop></linearGradient></defs><polygon id="triangle36" points="346,110 422,113 310,108" style="fill: url(#gr8); stroke: rgb(0, 0, 0); stroke-width: 0;"></polygon><defs><linearGradient id="gr9" x1="0%" x2="100%" y1="0%" y2="100%"><stop offset="0%" stop-color="rgb(3,54,73)"></stop><stop offset="100%" stop-color="rgb(9,50,67)"></stop></linearGradient></defs><polygon id="triangle36" points="250,195 250,173 219,192" style="fill: url(#gr9); stroke: rgb(0, 0, 0); stroke-width: 0;"></polygon><defs><linearGradient id="gr10" x1="0%" x2="100%" y1="0%" y2="100%"><stop offset="0%" stop-color="rgb(9,18,24)"></stop><stop offset="100%" stop-color="rgb(4,39,52)"></stop></linearGradient></defs><polygon id="triangle36" points="219,192 250,173 189,182" style="fill: url(#gr10); stroke: rgb(0, 0, 0); stroke-width: 0;"></polygon><defs><linearGradient id="gr11" x1="0%" x2="100%" y1="0%" y2="100%"><stop offset="0%" stop-color="rgb(4,57,76)"></stop><stop offset="100%" stop-color="rgb(4,41,54)"></stop></linearGradient></defs><polygon id="triangle36" points="250,173 258,146 189,182" style="fill: url(#gr11); stroke: rgb(0, 0, 0); stroke-width: 0;"></polygon><defs><linearGradient id="gr12" x1="0%" x2="100%" y1="0%" y2="100%"><stop offset="0%" stop-color="rgb(2,2,3)"></stop><stop offset="100%" stop-color="rgb(5,49,66)"></stop></linearGradient></defs><polygon id="triangle36" points="189,182 258,146 161,171" style="fill: url(#gr12); stroke: rgb(0, 0, 0); stroke-width: 0;"></polygon><defs><linearGradient id="gr13" x1="0%" x2="100%" y1="0%" y2="100%"><stop offset="0%" stop-color="rgb(3,15,20)"></stop><stop offset="100%" stop-color="rgb(6,41,55)"></stop></linearGradient></defs><polygon id="triangle36" points="161,171 258,146 134,152" style="fill: url(#gr13); stroke: rgb(0, 0, 0); stroke-width: 0;"></polygon><defs><linearGradient id="gr14" x1="0%" x2="100%" y1="0%" y2="100%"><stop offset="0%" stop-color="rgb(4,59,79)"></stop><stop offset="100%" stop-color="rgb(9,41,55)"></stop></linearGradient></defs><polygon id="triangle36" points="258,146 281,120 134,152" style="fill: url(#gr14); stroke: rgb(0, 0, 0); stroke-width: 0;"></polygon><defs><linearGradient id="gr15" x1="0%" x2="100%" y1="0%" y2="100%"><stop offset="0%" stop-color="rgb(5,3,4)"></stop><stop offset="100%" stop-color="rgb(6,43,57)"></stop></linearGradient></defs><polygon id="triangle36" points="134,152 281,120 102,122" style="fill: url(#gr15); stroke: rgb(0, 0, 0); stroke-width: 0;"></polygon><defs><linearGradient id="gr16" x1="0%" x2="100%" y1="0%" y2="100%"><stop offset="0%" stop-color="rgb(9,59,78)"></stop><stop offset="100%" stop-color="rgb(7,26,34)"></stop></linearGradient></defs><polygon id="triangle36" points="281,120 310,108 102,122" style="fill: url(#gr16); stroke: rgb(0, 0, 0); stroke-width: 0;"></polygon><defs><linearGradient id="gr17" x1="0%" x2="100%" y1="0%" y2="100%"><stop offset="0%" stop-color="rgb(9,78,102)"></stop><stop offset="100%" stop-color="rgb(12,93,123)"></stop></linearGradient></defs><polygon id="triangle36" points="102,122 134,152 93,164" style="fill: url(#gr17); stroke: rgb(0, 0, 0); stroke-width: 0;"></polygon><defs><linearGradient id="gr18" x1="0%" x2="100%" y1="0%" y2="100%"><stop offset="0%" stop-color="rgb(18,79,104)"></stop><stop offset="100%" stop-color="rgb(9,52,69)"></stop></linearGradient></defs><polygon id="triangle36" points="102,194 121,216 93,207" style="fill: url(#gr18); stroke: rgb(0, 0, 0); stroke-width: 0;"></polygon><defs><linearGradient id="gr19" x1="0%" x2="100%" y1="0%" y2="100%"><stop offset="0%" stop-color="rgb(16,108,144)"></stop><stop offset="100%" stop-color="rgb(12,68,90)"></stop></linearGradient></defs><polygon id="triangle36" points="93,164 102,194 93,207" style="fill: url(#gr19); stroke: rgb(0, 0, 0); stroke-width: 0;"></polygon><defs><linearGradient id="gr20" x1="0%" x2="100%" y1="0%" y2="100%"><stop offset="0%" stop-color="rgb(3,56,75)"></stop><stop offset="100%" stop-color="rgb(7,113,151)"></stop></linearGradient></defs><polygon id="triangle36" points="93,207 121,216 103,248" style="fill: url(#gr20); stroke: rgb(0, 0, 0); stroke-width: 0;"></polygon><defs><linearGradient id="gr21" x1="0%" x2="100%" y1="0%" y2="100%"><stop offset="0%" stop-color="rgb(7,114,152)"></stop><stop offset="100%" stop-color="rgb(11,112,149)"></stop></linearGradient></defs><polygon id="triangle36" points="103,248 121,216 122,268" style="fill: url(#gr21); stroke: rgb(0, 0, 0); stroke-width: 0;"></polygon><defs><linearGradient id="gr22" x1="0%" x2="100%" y1="0%" y2="100%"><stop offset="0%" stop-color="rgb(8,86,116)"></stop><stop offset="100%" stop-color="rgb(11,61,82)"></stop></linearGradient></defs><polygon id="triangle36" points="103,248 122,268 118,280" style="fill: url(#gr22); stroke: rgb(0, 0, 0); stroke-width: 0;"></polygon><defs><linearGradient id="gr23" x1="0%" x2="100%" y1="0%" y2="100%"><stop offset="0%" stop-color="rgb(17,72,96)"></stop><stop offset="100%" stop-color="rgb(9,58,77)"></stop></linearGradient></defs><polygon id="triangle36" points="122,268 145,279 118,280" style="fill: url(#gr23); stroke: rgb(0, 0, 0); stroke-width: 0;"></polygon><defs><linearGradient id="gr24" x1="0%" x2="100%" y1="0%" y2="100%"><stop offset="0%" stop-color="rgb(5,64,86)"></stop><stop offset="100%" stop-color="rgb(10,110,147)"></stop></linearGradient></defs><polygon id="triangle36" points="118,280 145,279 132,308" style="fill: url(#gr24); stroke: rgb(0, 0, 0); stroke-width: 0;"></polygon><defs><linearGradient id="gr25" x1="0%" x2="100%" y1="0%" y2="100%"><stop offset="0%" stop-color="rgb(13,110,147)"></stop><stop offset="100%" stop-color="rgb(9,117,156)"></stop></linearGradient></defs><polygon id="triangle36" points="132,308 145,279 156,324" style="fill: url(#gr25); stroke: rgb(0, 0, 0); stroke-width: 0;"></polygon><defs><linearGradient id="gr26" x1="0%" x2="100%" y1="0%" y2="100%"><stop offset="0%" stop-color="rgb(9,118,158)"></stop><stop offset="100%" stop-color="rgb(11,125,166)"></stop></linearGradient></defs><polygon id="triangle36" points="145,279 156,324 184,332" style="fill: url(#gr26); stroke: rgb(0, 0, 0); stroke-width: 0;"></polygon><defs><linearGradient id="gr27" x1="0%" x2="100%" y1="0%" y2="100%"><stop offset="0%" stop-color="rgb(5,61,80)"></stop><stop offset="100%" stop-color="rgb(8,74,97)"></stop></linearGradient></defs><polygon id="triangle36" points="156,324 184,332 156,348" style="fill: url(#gr27); stroke: rgb(0, 0, 0); stroke-width: 0;"></polygon><defs><linearGradient id="gr28" x1="0%" x2="100%" y1="0%" y2="100%"><stop offset="0%" stop-color="rgb(9,53,70)"></stop><stop offset="100%" stop-color="rgb(8,68,91)"></stop></linearGradient></defs><polygon id="triangle36" points="132,308 156,324 121,361" style="fill: url(#gr28); stroke: rgb(0, 0, 0); stroke-width: 0;"></polygon><defs><linearGradient id="gr29" x1="0%" x2="100%" y1="0%" y2="100%"><stop offset="0%" stop-color="rgb(6,45,59)"></stop><stop offset="100%" stop-color="rgb(8,68,91)"></stop></linearGradient></defs><polygon id="triangle36" points="156,348 156,324 121,361" style="fill: url(#gr29); stroke: rgb(0, 0, 0); stroke-width: 0;"></polygon><defs><linearGradient id="gr30" x1="0%" x2="100%" y1="0%" y2="100%"><stop offset="0%" stop-color="rgb(3,56,75)"></stop><stop offset="100%" stop-color="rgb(9,23,30)"></stop></linearGradient></defs><polygon id="triangle36" points="103,248 118,280 81,362" style="fill: url(#gr30); stroke: rgb(0, 0, 0); stroke-width: 0;"></polygon><defs><linearGradient id="gr31" x1="0%" x2="100%" y1="0%" y2="100%"><stop offset="0%" stop-color="rgb(2,9,13)"></stop><stop offset="100%" stop-color="rgb(14,52,69)"></stop></linearGradient></defs><polygon id="triangle36" points="118,280 132,308 81,362" style="fill: url(#gr31); stroke: rgb(0, 0, 0); stroke-width: 0;"></polygon><defs><linearGradient id="gr32" x1="0%" x2="100%" y1="0%" y2="100%"><stop offset="0%" stop-color="rgb(7,42,56)"></stop><stop offset="100%" stop-color="rgb(14,52,69)"></stop></linearGradient></defs><polygon id="triangle36" points="121,361 132,308 81,362" style="fill: url(#gr32); stroke: rgb(0, 0, 0); stroke-width: 0;"></polygon><defs><linearGradient id="gr33" x1="0%" x2="100%" y1="0%" y2="100%"><stop offset="0%" stop-color="rgb(0,0,0)"></stop><stop offset="100%" stop-color="rgb(12,60,79)"></stop></linearGradient></defs><polygon id="triangle36" points="93,207 93,164 81,362" style="fill: url(#gr33); stroke: rgb(0, 0, 0); stroke-width: 0;"></polygon><defs><linearGradient id="gr34" x1="0%" x2="100%" y1="0%" y2="100%"><stop offset="0%" stop-color="rgb(0,0,0)"></stop><stop offset="100%" stop-color="rgb(10,54,72)"></stop></linearGradient></defs><polygon id="triangle36" points="93,207 103,248 81,362" style="fill: url(#gr34); stroke: rgb(0, 0, 0); stroke-width: 0;"></polygon><defs><linearGradient id="gr35" x1="0%" x2="100%" y1="0%" y2="100%"><stop offset="0%" stop-color="rgb(15,80,106)"></stop><stop offset="100%" stop-color="rgb(13,91,121)"></stop></linearGradient></defs><polygon id="triangle36" points="81,362 121,361 123,384" style="fill: url(#gr35); stroke: rgb(0, 0, 0); stroke-width: 0;"></polygon><defs><linearGradient id="gr36" x1="0%" x2="100%" y1="0%" y2="100%"><stop offset="0%" stop-color="rgb(9,29,38)"></stop><stop offset="100%" stop-color="rgb(3,12,15)"></stop></linearGradient></defs><polygon id="triangle36" points="393,151 407,138 410,146" style="fill: url(#gr36); stroke: rgb(0, 0, 0); stroke-width: 0;"></polygon><defs><linearGradient id="gr37" x1="0%" x2="100%" y1="0%" y2="100%"><stop offset="0%" stop-color="rgb(16,96,127)"></stop><stop offset="100%" stop-color="rgb(9,56,73)"></stop></linearGradient></defs><polygon id="triangle36" points="393,151 412,165 410,146" style="fill: url(#gr37); stroke: rgb(0, 0, 0); stroke-width: 0;"></polygon><defs><linearGradient id="gr38" x1="0%" x2="100%" y1="0%" y2="100%"><stop offset="0%" stop-color="rgb(0,2,2)"></stop><stop offset="100%" stop-color="rgb(3,10,14)"></stop></linearGradient></defs><polygon id="triangle36" points="407,138 430,143 410,146" style="fill: url(#gr38); stroke: rgb(0, 0, 0); stroke-width: 0;"></polygon><defs><linearGradient id="gr39" x1="0%" x2="100%" y1="0%" y2="100%"><stop offset="0%" stop-color="rgb(13,59,78)"></stop><stop offset="100%" stop-color="rgb(10,50,65)"></stop></linearGradient></defs><polygon id="triangle36" points="412,165 430,143 410,146" style="fill: url(#gr39); stroke: rgb(0, 0, 0); stroke-width: 0;"></polygon><defs><linearGradient id="gr40" x1="0%" x2="100%" y1="0%" y2="100%"><stop offset="0%" stop-color="rgb(9,119,159)"></stop><stop offset="100%" stop-color="rgb(11,128,169)"></stop></linearGradient></defs><polygon id="triangle36" points="145,279 184,332 241,255" style="fill: url(#gr40); stroke: rgb(0, 0, 0); stroke-width: 0;"></polygon><defs><linearGradient id="gr41" x1="0%" x2="100%" y1="0%" y2="100%"><stop offset="0%" stop-color="rgb(13,74,99)"></stop><stop offset="100%" stop-color="rgb(8,116,155)"></stop></linearGradient></defs><polygon id="triangle36" points="219,192 250,195 241,255" style="fill: url(#gr41); stroke: rgb(0, 0, 0); stroke-width: 0;"></polygon><defs><linearGradient id="gr42" x1="0%" x2="100%" y1="0%" y2="100%"><stop offset="0%" stop-color="rgb(8,118,157)"></stop><stop offset="100%" stop-color="rgb(12,114,152)"></stop></linearGradient></defs><polygon id="triangle36" points="121,216 122,268 164,212" style="fill: url(#gr42); stroke: rgb(0, 0, 0); stroke-width: 0;"></polygon><defs><linearGradient id="gr43" x1="0%" x2="100%" y1="0%" y2="100%"><stop offset="0%" stop-color="rgb(14,111,148)"></stop><stop offset="100%" stop-color="rgb(8,118,157)"></stop></linearGradient></defs><polygon id="triangle36" points="122,268 145,279 164,212" style="fill: url(#gr43); stroke: rgb(0, 0, 0); stroke-width: 0;"></polygon><defs><linearGradient id="gr44" x1="0%" x2="100%" y1="0%" y2="100%"><stop offset="0%" stop-color="rgb(7,111,149)"></stop><stop offset="100%" stop-color="rgb(9,118,157)"></stop></linearGradient></defs><polygon id="triangle36" points="145,279 241,255 164,212" style="fill: url(#gr44); stroke: rgb(0, 0, 0); stroke-width: 0;"></polygon><defs><linearGradient id="gr45" x1="0%" x2="100%" y1="0%" y2="100%"><stop offset="0%" stop-color="rgb(8,74,98)"></stop><stop offset="100%" stop-color="rgb(7,81,107)"></stop></linearGradient></defs><polygon id="triangle36" points="161,171 189,182 164,212" style="fill: url(#gr45); stroke: rgb(0, 0, 0); stroke-width: 0;"></polygon><defs><linearGradient id="gr46" x1="0%" x2="100%" y1="0%" y2="100%"><stop offset="0%" stop-color="rgb(6,58,77)"></stop><stop offset="100%" stop-color="rgb(11,89,119)"></stop></linearGradient></defs><polygon id="triangle36" points="189,182 219,192 164,212" style="fill: url(#gr46); stroke: rgb(0, 0, 0); stroke-width: 0;"></polygon><defs><linearGradient id="gr47" x1="0%" x2="100%" y1="0%" y2="100%"><stop offset="0%" stop-color="rgb(12,70,94)"></stop><stop offset="100%" stop-color="rgb(8,117,155)"></stop></linearGradient></defs><polygon id="triangle36" points="219,192 241,255 164,212" style="fill: url(#gr47); stroke: rgb(0, 0, 0); stroke-width: 0;"></polygon><defs><linearGradient id="gr48" x1="0%" x2="100%" y1="0%" y2="100%"><stop offset="0%" stop-color="rgb(12,119,158)"></stop><stop offset="100%" stop-color="rgb(10,122,162)"></stop></linearGradient></defs><polygon id="triangle36" points="102,194 121,216 128,176" style="fill: url(#gr48); stroke: rgb(0, 0, 0); stroke-width: 0;"></polygon><defs><linearGradient id="gr49" x1="0%" x2="100%" y1="0%" y2="100%"><stop offset="0%" stop-color="rgb(9,118,158)"></stop><stop offset="100%" stop-color="rgb(10,123,164)"></stop></linearGradient></defs><polygon id="triangle36" points="121,216 164,212 128,176" style="fill: url(#gr49); stroke: rgb(0, 0, 0); stroke-width: 0;"></polygon><defs><linearGradient id="gr50" x1="0%" x2="100%" y1="0%" y2="100%"><stop offset="0%" stop-color="rgb(11,71,93)"></stop><stop offset="100%" stop-color="rgb(10,98,129)"></stop></linearGradient></defs><polygon id="triangle36" points="134,152 161,171 128,176" style="fill: url(#gr50); stroke: rgb(0, 0, 0); stroke-width: 0;"></polygon><defs><linearGradient id="gr51" x1="0%" x2="100%" y1="0%" y2="100%"><stop offset="0%" stop-color="rgb(9,79,104)"></stop><stop offset="100%" stop-color="rgb(11,125,166)"></stop></linearGradient></defs><polygon id="triangle36" points="161,171 164,212 128,176" style="fill: url(#gr51); stroke: rgb(0, 0, 0); stroke-width: 0;"></polygon><defs><linearGradient id="gr52" x1="0%" x2="100%" y1="0%" y2="100%"><stop offset="0%" stop-color="rgb(11,126,167)"></stop><stop offset="100%" stop-color="rgb(12,123,163)"></stop></linearGradient></defs><polygon id="triangle36" points="93,164 102,194 128,176" style="fill: url(#gr52); stroke: rgb(0, 0, 0); stroke-width: 0;"></polygon><defs><linearGradient id="gr53" x1="0%" x2="100%" y1="0%" y2="100%"><stop offset="0%" stop-color="rgb(12,131,174)"></stop><stop offset="100%" stop-color="rgb(11,89,118)"></stop></linearGradient></defs><polygon id="triangle36" points="93,164 134,152 128,176" style="fill: url(#gr53); stroke: rgb(0, 0, 0); stroke-width: 0;"></polygon><defs><linearGradient id="gr54" x1="0%" x2="100%" y1="0%" y2="100%"><stop offset="0%" stop-color="rgb(8,114,152)"></stop><stop offset="100%" stop-color="rgb(7,113,151)"></stop></linearGradient></defs><polygon id="triangle36" points="250,173 250,195 322,160" style="fill: url(#gr54); stroke: rgb(0, 0, 0); stroke-width: 0;"></polygon><defs><linearGradient id="gr55" x1="0%" x2="100%" y1="0%" y2="100%"><stop offset="0%" stop-color="rgb(8,115,153)"></stop><stop offset="100%" stop-color="rgb(8,116,156)"></stop></linearGradient></defs><polygon id="triangle36" points="250,173 258,146 322,160" style="fill: url(#gr55); stroke: rgb(0, 0, 0); stroke-width: 0;"></polygon><defs><linearGradient id="gr56" x1="0%" x2="100%" y1="0%" y2="100%"><stop offset="0%" stop-color="rgb(9,117,157)"></stop><stop offset="100%" stop-color="rgb(11,117,155)"></stop></linearGradient></defs><polygon id="triangle36" points="258,146 281,120 322,160" style="fill: url(#gr56); stroke: rgb(0, 0, 0); stroke-width: 0;"></polygon><defs><linearGradient id="gr57" x1="0%" x2="100%" y1="0%" y2="100%"><stop offset="0%" stop-color="rgb(14,120,159)"></stop><stop offset="100%" stop-color="rgb(12,102,135)"></stop></linearGradient></defs><polygon id="triangle36" points="281,120 310,108 322,160" style="fill: url(#gr57); stroke: rgb(0, 0, 0); stroke-width: 0;"></polygon><defs><linearGradient id="gr58" x1="0%" x2="100%" y1="0%" y2="100%"><stop offset="0%" stop-color="rgb(15,97,128)"></stop><stop offset="100%" stop-color="rgb(8,83,111)"></stop></linearGradient></defs><polygon id="triangle36" points="310,108 346,110 322,160" style="fill: url(#gr58); stroke: rgb(0, 0, 0); stroke-width: 0;"></polygon><defs><linearGradient id="gr59" x1="0%" x2="100%" y1="0%" y2="100%"><stop offset="0%" stop-color="rgb(9,69,91)"></stop><stop offset="100%" stop-color="rgb(12,116,154)"></stop></linearGradient></defs><polygon id="triangle36" points="346,110 374,131 322,160" style="fill: url(#gr59); stroke: rgb(0, 0, 0); stroke-width: 0;"></polygon><defs><linearGradient id="gr60" x1="0%" x2="100%" y1="0%" y2="100%"><stop offset="0%" stop-color="rgb(13,114,152)"></stop><stop offset="100%" stop-color="rgb(12,100,133)"></stop></linearGradient></defs><polygon id="triangle36" points="374,131 393,151 322,160" style="fill: url(#gr60); stroke: rgb(0, 0, 0); stroke-width: 0;"></polygon><defs><linearGradient id="gr61" x1="0%" x2="100%" y1="0%" y2="100%"><stop offset="0%" stop-color="rgb(4,58,77)"></stop><stop offset="100%" stop-color="rgb(7,79,105)"></stop></linearGradient></defs><polygon id="triangle36" points="392,223 395,179 322,160" style="fill: url(#gr61); stroke: rgb(0, 0, 0); stroke-width: 0;"></polygon><defs><linearGradient id="gr62" x1="0%" x2="100%" y1="0%" y2="100%"><stop offset="0%" stop-color="rgb(14,89,118)"></stop><stop offset="100%" stop-color="rgb(7,80,107)"></stop></linearGradient></defs><polygon id="triangle36" points="393,151 395,179 322,160" style="fill: url(#gr62); stroke: rgb(0, 0, 0); stroke-width: 0;"></polygon><defs><linearGradient id="gr63" x1="0%" x2="100%" y1="0%" y2="100%"><stop offset="0%" stop-color="rgb(11,125,165)"></stop><stop offset="100%" stop-color="rgb(8,114,152)"></stop></linearGradient></defs><polygon id="triangle36" points="241,255 250,195 317,232" style="fill: url(#gr63); stroke: rgb(0, 0, 0); stroke-width: 0;"></polygon><defs><linearGradient id="gr64" x1="0%" x2="100%" y1="0%" y2="100%"><stop offset="0%" stop-color="rgb(8,113,151)"></stop><stop offset="100%" stop-color="rgb(8,115,153)"></stop></linearGradient></defs><polygon id="triangle36" points="250,195 322,160 317,232" style="fill: url(#gr64); stroke: rgb(0, 0, 0); stroke-width: 0;"></polygon><defs><linearGradient id="gr65" x1="0%" x2="100%" y1="0%" y2="100%"><stop offset="0%" stop-color="rgb(8,115,154)"></stop><stop offset="100%" stop-color="rgb(5,75,100)"></stop></linearGradient></defs><polygon id="triangle36" points="322,160 392,223 317,232" style="fill: url(#gr65); stroke: rgb(0, 0, 0); stroke-width: 0;"></polygon><defs><linearGradient id="gr66" x1="0%" x2="100%" y1="0%" y2="100%"><stop offset="0%" stop-color="rgb(4,60,80)"></stop><stop offset="100%" stop-color="rgb(7,79,105)"></stop></linearGradient></defs><polygon id="triangle36" points="359,304 378,266 317,232" style="fill: url(#gr66); stroke: rgb(0, 0, 0); stroke-width: 0;"></polygon><defs><linearGradient id="gr67" x1="0%" x2="100%" y1="0%" y2="100%"><stop offset="0%" stop-color="rgb(8,64,85)"></stop><stop offset="100%" stop-color="rgb(5,77,103)"></stop></linearGradient></defs><polygon id="triangle36" points="378,266 392,223 317,232" style="fill: url(#gr67); stroke: rgb(0, 0, 0); stroke-width: 0;"></polygon><defs><linearGradient id="gr68" x1="0%" x2="100%" y1="0%" y2="100%"><stop offset="0%" stop-color="rgb(12,129,170)"></stop><stop offset="100%" stop-color="rgb(11,126,167)"></stop></linearGradient></defs><polygon id="triangle36" points="241,255 317,232 284,296" style="fill: url(#gr68); stroke: rgb(0, 0, 0); stroke-width: 0;"></polygon><defs><linearGradient id="gr69" x1="0%" x2="100%" y1="0%" y2="100%"><stop offset="0%" stop-color="rgb(9,71,93)"></stop><stop offset="100%" stop-color="rgb(11,98,130)"></stop></linearGradient></defs><polygon id="triangle36" points="296,366 333,335 284,296" style="fill: url(#gr69); stroke: rgb(0, 0, 0); stroke-width: 0;"></polygon><defs><linearGradient id="gr70" x1="0%" x2="100%" y1="0%" y2="100%"><stop offset="0%" stop-color="rgb(8,116,154)"></stop><stop offset="100%" stop-color="rgb(8,87,115)"></stop></linearGradient></defs><polygon id="triangle36" points="317,232 359,304 284,296" style="fill: url(#gr70); stroke: rgb(0, 0, 0); stroke-width: 0;"></polygon><defs><linearGradient id="gr71" x1="0%" x2="100%" y1="0%" y2="100%"><stop offset="0%" stop-color="rgb(8,74,99)"></stop><stop offset="100%" stop-color="rgb(8,89,118)"></stop></linearGradient></defs><polygon id="triangle36" points="333,335 359,304 284,296" style="fill: url(#gr71); stroke: rgb(0, 0, 0); stroke-width: 0;"></polygon><defs><linearGradient id="gr72" x1="0%" x2="100%" y1="0%" y2="100%"><stop offset="0%" stop-color="rgb(13,134,177)"></stop><stop offset="100%" stop-color="rgb(13,134,178)"></stop></linearGradient></defs><polygon id="triangle36" points="184,332 241,255 242,328" style="fill: url(#gr72); stroke: rgb(0, 0, 0); stroke-width: 0;"></polygon><defs><linearGradient id="gr73" x1="0%" x2="100%" y1="0%" y2="100%"><stop offset="0%" stop-color="rgb(13,133,175)"></stop><stop offset="100%" stop-color="rgb(14,138,183)"></stop></linearGradient></defs><polygon id="triangle36" points="241,255 284,296 242,328" style="fill: url(#gr73); stroke: rgb(0, 0, 0); stroke-width: 0;"></polygon><defs><linearGradient id="gr74" x1="0%" x2="100%" y1="0%" y2="100%"><stop offset="0%" stop-color="rgb(15,87,116)"></stop><stop offset="100%" stop-color="rgb(11,95,125)"></stop></linearGradient></defs><polygon id="triangle36" points="255,384 296,366 242,328" style="fill: url(#gr74); stroke: rgb(0, 0, 0); stroke-width: 0;"></polygon><defs><linearGradient id="gr75" x1="0%" x2="100%" y1="0%" y2="100%"><stop offset="0%" stop-color="rgb(14,135,179)"></stop><stop offset="100%" stop-color="rgb(11,93,122)"></stop></linearGradient></defs><polygon id="triangle36" points="284,296 296,366 242,328" style="fill: url(#gr75); stroke: rgb(0, 0, 0); stroke-width: 0;"></polygon><defs><linearGradient id="gr76" x1="0%" x2="100%" y1="0%" y2="100%"><stop offset="0%" stop-color="rgb(12,101,135)"></stop><stop offset="100%" stop-color="rgb(13,108,144)"></stop></linearGradient></defs><polygon id="triangle36" points="121,361 123,384 153,370" style="fill: url(#gr76); stroke: rgb(0, 0, 0); stroke-width: 0;"></polygon><defs><linearGradient id="gr77" x1="0%" x2="100%" y1="0%" y2="100%"><stop offset="0%" stop-color="rgb(13,105,140)"></stop><stop offset="100%" stop-color="rgb(11,115,152)"></stop></linearGradient></defs><polygon id="triangle36" points="121,361 156,348 153,370" style="fill: url(#gr77); stroke: rgb(0, 0, 0); stroke-width: 0;"></polygon><defs><linearGradient id="gr78" x1="0%" x2="100%" y1="0%" y2="100%"><stop offset="0%" stop-color="rgb(15,103,136)"></stop><stop offset="100%" stop-color="rgb(14,108,143)"></stop></linearGradient></defs><polygon id="triangle36" points="123,384 166,393 153,370" style="fill: url(#gr78); stroke: rgb(0, 0, 0); stroke-width: 0;"></polygon><defs><linearGradient id="gr79" x1="0%" x2="100%" y1="0%" y2="100%"><stop offset="0%" stop-color="rgb(13,132,174)"></stop><stop offset="100%" stop-color="rgb(13,119,157)"></stop></linearGradient></defs><polygon id="triangle36" points="153,370 156,348 195,359" style="fill: url(#gr79); stroke: rgb(0, 0, 0); stroke-width: 0;"></polygon><defs><linearGradient id="gr80" x1="0%" x2="100%" y1="0%" y2="100%"><stop offset="0%" stop-color="rgb(13,132,174)"></stop><stop offset="100%" stop-color="rgb(15,113,149)"></stop></linearGradient></defs><polygon id="triangle36" points="153,370 166,393 195,359" style="fill: url(#gr80); stroke: rgb(0, 0, 0); stroke-width: 0;"></polygon><defs><linearGradient id="gr81" x1="0%" x2="100%" y1="0%" y2="100%"><stop offset="0%" stop-color="rgb(13,113,149)"></stop><stop offset="100%" stop-color="rgb(13,134,177)"></stop></linearGradient></defs><polygon id="triangle36" points="156,348 184,332 195,359" style="fill: url(#gr81); stroke: rgb(0, 0, 0); stroke-width: 0;"></polygon><defs><linearGradient id="gr82" x1="0%" x2="100%" y1="0%" y2="100%"><stop offset="0%" stop-color="rgb(17,105,138)"></stop><stop offset="100%" stop-color="rgb(20,117,154)"></stop></linearGradient></defs><polygon id="triangle36" points="166,393 212,392 195,359" style="fill: url(#gr82); stroke: rgb(0, 0, 0); stroke-width: 0;"></polygon><defs><linearGradient id="gr83" x1="0%" x2="100%" y1="0%" y2="100%"><stop offset="0%" stop-color="rgb(13,134,177)"></stop><stop offset="100%" stop-color="rgb(14,136,180)"></stop></linearGradient></defs><polygon id="triangle36" points="184,332 242,328 195,359" style="fill: url(#gr83); stroke: rgb(0, 0, 0); stroke-width: 0;"></polygon><defs><linearGradient id="gr84" x1="0%" x2="100%" y1="0%" y2="100%"><stop offset="0%" stop-color="rgb(24,110,145)"></stop><stop offset="100%" stop-color="rgb(15,103,137)"></stop></linearGradient></defs><polygon id="triangle36" points="212,392 255,384 195,359" style="fill: url(#gr84); stroke: rgb(0, 0, 0); stroke-width: 0;"></polygon><defs><linearGradient id="gr85" x1="0%" x2="100%" y1="0%" y2="100%"><stop offset="0%" stop-color="rgb(14,138,183)"></stop><stop offset="100%" stop-color="rgb(14,102,135)"></stop></linearGradient></defs><polygon id="triangle36" points="242,328 255,384 195,359" style="fill: url(#gr85); stroke: rgb(0, 0, 0); stroke-width: 0;"></polygon></svg>